# xmcd CD database file
#
# Track frame offsets:
#	150
#	21458
#	37871
#	59120
#	86755
#	332550
#
# Disc length: 4440 seconds
#
# Revision: 0
# Processed by: cddbd v1.5PL3 Copyright (c) Steve Scherf et al.
# Submitted via: CDex 1.51
#
DISCID=4e115606
DTITLE=み斗ひ - 白い蝶
DYEAR=2004
DGENRE=J-Pop
TTITLE0=白い蝶
TTITLE1=雨音
TTITLE2=白い蝶（Instrumental version）
TTITLE3=雨音（Instrumental version）
TTITLE4=データ
TTITLE5=データ
EXTD=YEAR: 2004
EXTT0=
EXTT1=
EXTT2=
EXTT3=
EXTT4=
EXTT5=
PLAYORDER=
